<svg width="38" height="38" viewBox="0 0 38 38" fill="none" xmlns="http://www.w3.org/2000/svg">
<path d="M11.2234 25.9898C11.0559 27.6578 10.4698 29.1839 9.57291 30.288C8.67597 31.3921 7.52838 32 6.34091 32C5.15344 32 4.00584 31.3921 3.10891 30.288C2.21197 29.1839 1.62592 27.6578 1.45841 25.9898H0V1.99922C0 1.46899 0.148457 0.960484 0.412713 0.585558C0.676969 0.210632 1.03538 0 1.40909 0H21.1364C21.5101 0 21.8685 0.210632 22.1327 0.585558C22.397 0.960484 22.5455 1.46899 22.5455 1.99922V5.99765H26.7727L31 14.1065V25.9898H28.1325C27.965 27.6578 27.3789 29.1839 26.482 30.288C25.5851 31.3921 24.4375 32 23.25 32C22.0625 32 20.9149 31.3921 20.018 30.288C19.1211 29.1839 18.535 27.6578 18.3675 25.9898H11.2234ZM19.7273 3.99843H2.81818V20.0921C3.37416 19.2868 4.05903 18.684 4.81452 18.3351C5.57 17.9861 6.37373 17.9012 7.1573 18.0877C7.94088 18.2742 8.68109 18.7265 9.31495 19.4062C9.94881 20.0859 10.4575 20.9728 10.7979 21.9914H18.793C19.0298 21.2857 19.3468 20.6439 19.7273 20.0921V3.99843ZM22.5455 15.9937H28.1818V15.424L25.3524 9.99609H22.5455V15.9937ZM23.25 27.989C23.8108 27.989 24.3485 27.673 24.7451 27.1104C25.1416 26.5478 25.3643 25.7848 25.3643 24.9892C25.3643 24.1936 25.1416 23.4306 24.7451 22.868C24.3485 22.3054 23.8108 21.9894 23.25 21.9894C22.6892 21.9894 22.1514 22.3054 21.7549 22.868C21.3584 23.4306 21.1357 24.1936 21.1357 24.9892C21.1357 25.7848 21.3584 26.5478 21.7549 27.1104C22.1514 27.673 22.6892 27.989 23.25 27.989ZM8.45455 24.9902C8.45455 24.5964 8.39987 24.2064 8.29365 23.8426C8.18743 23.4788 8.03174 23.1482 7.83548 22.8697C7.63921 22.5913 7.4062 22.3704 7.14976 22.2197C6.89332 22.069 6.61848 21.9914 6.34091 21.9914C6.06334 21.9914 5.78849 22.069 5.53206 22.2197C5.27562 22.3704 5.04261 22.5913 4.84634 22.8697C4.65007 23.1482 4.49438 23.4788 4.38816 23.8426C4.28194 24.2064 4.22727 24.5964 4.22727 24.9902C4.22727 25.7856 4.44996 26.5483 4.84634 27.1107C5.24273 27.6731 5.78034 27.989 6.34091 27.989C6.90148 27.989 7.43909 27.6731 7.83548 27.1107C8.23186 26.5483 8.45455 25.7856 8.45455 24.9902Z" fill="url(#paint0_linear_209_802)"/>
<defs>
<linearGradient id="paint0_linear_209_802" x1="31" y1="0" x2="-0.983879" y2="30.9844" gradientUnits="userSpaceOnUse">
<stop stop-color="#F76680"/>
<stop offset="1" stop-color="#57007B"/>
</linearGradient>
</defs>
</svg>
