<svg width="34" height="34" viewBox="0 0 34 34" fill="none" xmlns="http://www.w3.org/2000/svg">
<g clip-path="url(#clip0_209_805)">
<path d="M5.66665 22.6666V28.3333H11.3333V31.1666H2.83331V22.6666H5.66665ZM31.1666 22.6666V31.1666H22.6666V28.3333H28.3333V22.6666H31.1666ZM10.625 9.91665C10.625 11.3614 11.1156 12.7634 12.0164 13.893C12.9171 15.0226 14.1748 15.8128 15.5833 16.1344V24.0833H18.4166L18.4181 16.133C19.8261 15.8112 21.0832 15.021 21.9837 13.8917C22.8842 12.7625 23.3747 11.361 23.375 9.91665H26.2083C26.2086 11.6016 25.7466 13.2544 24.8726 14.6949C23.9986 16.1355 22.746 17.3086 21.2514 18.0866L21.25 26.9166H12.75V18.088C11.2549 17.3101 10.0019 16.1369 9.1276 14.696C8.2533 13.2552 7.7912 11.602 7.79165 9.91665H10.625ZM17 7.08331C17.9393 7.08331 18.8401 7.45645 19.5043 8.12064C20.1685 8.78483 20.5416 9.68567 20.5416 10.625C20.5416 11.5643 20.1685 12.4651 19.5043 13.1293C18.8401 13.7935 17.9393 14.1666 17 14.1666C16.0607 14.1666 15.1598 13.7935 14.4956 13.1293C13.8315 12.4651 13.4583 11.5643 13.4583 10.625C13.4583 9.68567 13.8315 8.78483 14.4956 8.12064C15.1598 7.45645 16.0607 7.08331 17 7.08331ZM11.3333 2.83331V5.66665L5.66665 5.66523V11.3333H2.83331V2.83331H11.3333ZM31.1666 2.83331V11.3333H28.3333V5.66665H22.6666V2.83331H31.1666Z" fill="url(#paint0_linear_209_805)"/>
</g>
<defs>
<linearGradient id="paint0_linear_209_805" x1="31.1666" y1="2.83331" x2="2.83331" y2="31.1666" gradientUnits="userSpaceOnUse">
<stop stop-color="#F76680"/>
<stop offset="1" stop-color="#57007B"/>
</linearGradient>
<clipPath id="clip0_209_805">
<rect width="34" height="34" fill="white"/>
</clipPath>
</defs>
</svg>
