<svg width="41" height="38" viewBox="0 0 41 38" fill="none" xmlns="http://www.w3.org/2000/svg">
<g clip-path="url(#clip0_209_789)">
<path d="M5.125 4.96063H35.875C36.3281 4.96063 36.7626 5.12306 37.083 5.41218C37.4033 5.70129 37.5833 6.09342 37.5833 6.5023V31.169C37.5833 31.5778 37.4033 31.97 37.083 32.2591C36.7626 32.5482 36.3281 32.7106 35.875 32.7106H5.125C4.67192 32.7106 4.2374 32.5482 3.91702 32.2591C3.59665 31.97 3.41666 31.5778 3.41666 31.169V6.5023C3.41666 6.09342 3.59665 5.70129 3.91702 5.41218C4.2374 5.12306 4.67192 4.96063 5.125 4.96063ZM19.0069 18.8356H6.83333V29.6273H34.1667V18.8356H32.2431C31.8631 20.1588 31.007 21.3305 29.8092 22.1671C28.6113 23.0036 27.1396 23.4575 25.625 23.4575C24.1104 23.4575 22.6387 23.0036 21.4408 22.1671C20.243 21.3305 19.3869 20.1588 19.0069 18.8356ZM19.0069 15.7523C19.3869 14.4292 20.243 13.2574 21.4408 12.4209C22.6387 11.5844 24.1104 11.1305 25.625 11.1305C27.1396 11.1305 28.6113 11.5844 29.8092 12.4209C31.007 13.2574 31.8631 14.4292 32.2431 15.7523H34.1667V8.04397H6.83333V15.7523H19.0069ZM25.625 20.3773C26.5312 20.3773 27.4002 20.0524 28.0409 19.4742C28.6817 18.896 29.0417 18.1117 29.0417 17.294C29.0417 16.4762 28.6817 15.692 28.0409 15.1137C27.4002 14.5355 26.5312 14.2106 25.625 14.2106C24.7188 14.2106 23.8498 14.5355 23.209 15.1137C22.5683 15.692 22.2083 16.4762 22.2083 17.294C22.2083 18.1117 22.5683 18.896 23.209 19.4742C23.8498 20.0524 24.7188 20.3773 25.625 20.3773ZM10.25 23.4606H13.6667V26.544H10.25V23.4606Z" fill="url(#paint0_linear_209_789)"/>
</g>
<defs>
<linearGradient id="paint0_linear_209_789" x1="37.5833" y1="4.96063" x2="10.4231" y2="38.4012" gradientUnits="userSpaceOnUse">
<stop stop-color="#F76680"/>
<stop offset="1" stop-color="#57007B"/>
</linearGradient>
<clipPath id="clip0_209_789">
<rect width="41" height="37" fill="white" transform="translate(0 0.335632)"/>
</clipPath>
</defs>
</svg>
